<svg width="66" height="20" viewBox="0 0 66 20" fill="none" xmlns="http://www.w3.org/2000/svg">
<path d="M0 5C0 2.23858 2.23858 0 5 0H54.161C57.1548 0 59.8171 1.90383 60.7851 4.73679L62.8351 10.7368C64.387 15.2789 61.011 20 56.211 20H5C2.23858 20 0 17.7614 0 15V5Z" fill="white"/>
<path d="M16.485 6.5V14H15.18V7.745H11.295V14H9.99V6.5H16.485ZM24.8014 13.055C24.0314 13.815 23.0964 14.195 21.9964 14.195C20.8964 14.195 19.9614 13.815 19.1914 13.055C18.4314 12.295 18.0514 11.36 18.0514 10.25C18.0514 9.14 18.4314 8.205 19.1914 7.445C19.9614 6.685 20.8964 6.305 21.9964 6.305C23.0964 6.305 24.0314 6.685 24.8014 7.445C25.5714 8.205 25.9564 9.14 25.9564 10.25C25.9564 11.36 25.5714 12.295 24.8014 13.055ZM21.9964 12.92C22.7464 12.92 23.3764 12.665 23.8864 12.155C24.3964 11.645 24.6514 11.01 24.6514 10.25C24.6514 9.49 24.3964 8.855 23.8864 8.345C23.3764 7.835 22.7464 7.58 21.9964 7.58C21.2564 7.58 20.6314 7.835 20.1214 8.345C19.6114 8.855 19.3564 9.49 19.3564 10.25C19.3564 11.01 19.6114 11.645 20.1214 12.155C20.6314 12.665 21.2564 12.92 21.9964 12.92ZM31.0199 14.195C29.8899 14.195 28.9499 13.82 28.1999 13.07C27.4499 12.31 27.0749 11.37 27.0749 10.25C27.0749 9.13 27.4499 8.195 28.1999 7.445C28.9499 6.685 29.8899 6.305 31.0199 6.305C31.7599 6.305 32.4249 6.485 33.0149 6.845C33.6049 7.195 34.0449 7.67 34.3349 8.27L33.2399 8.9C33.0499 8.5 32.7549 8.18 32.3549 7.94C31.9649 7.7 31.5199 7.58 31.0199 7.58C30.2699 7.58 29.6399 7.835 29.1299 8.345C28.6299 8.855 28.3799 9.49 28.3799 10.25C28.3799 11 28.6299 11.63 29.1299 12.14C29.6399 12.65 30.2699 12.905 31.0199 12.905C31.5199 12.905 31.9699 12.79 32.3699 12.56C32.7699 12.32 33.0749 12 33.2849 11.6L34.3949 12.245C34.0749 12.835 33.6149 13.31 33.0149 13.67C32.4149 14.02 31.7499 14.195 31.0199 14.195ZM41.7919 6.5V14H40.4869V7.76H37.5319V10.82C37.5319 12.05 37.2819 12.91 36.7819 13.4C36.2919 13.88 35.5969 14.08 34.6969 14V12.77C35.2069 12.84 35.5869 12.73 35.8369 12.44C36.0969 12.14 36.2269 11.59 36.2269 10.79V6.5H41.7919ZM44.6843 10.85C44.8143 11.52 45.1193 12.04 45.5993 12.41C46.0893 12.78 46.6893 12.965 47.3993 12.965C48.3893 12.965 49.1093 12.6 49.5593 11.87L50.6693 12.5C49.9393 13.63 48.8393 14.195 47.3693 14.195C46.1793 14.195 45.2093 13.825 44.4593 13.085C43.7193 12.335 43.3493 11.39 43.3493 10.25C43.3493 9.12 43.7143 8.18 44.4443 7.43C45.1743 6.68 46.1193 6.305 47.2793 6.305C48.3793 6.305 49.2743 6.695 49.9643 7.475C50.6643 8.245 51.0143 9.175 51.0143 10.265C51.0143 10.455 50.9993 10.65 50.9693 10.85H44.6843ZM47.2793 7.535C46.5793 7.535 45.9993 7.735 45.5393 8.135C45.0793 8.525 44.7943 9.05 44.6843 9.71H49.6943C49.5843 9 49.3043 8.46 48.8543 8.09C48.4043 7.72 47.8793 7.535 47.2793 7.535Z" fill="#2E2F37"/>
</svg>
