<svg width="41" height="20" viewBox="0 0 41 20" fill="none" xmlns="http://www.w3.org/2000/svg">
<path d="M0 5C0 2.23858 2.23858 0 5 0H29.161C32.1548 0 34.8171 1.90383 35.7851 4.73679L37.8351 10.7368C39.387 15.2789 36.011 20 31.211 20H5C2.23858 20 0 17.7614 0 15V5Z" fill="white"/>
<path d="M16.2261 11.755H17.2611V15.01H15.9711V13H10.3461V15.01H9.05613V11.755H9.97113C10.4511 11.095 10.6911 10.17 10.6911 8.98V5.5H16.2261V11.755ZM11.4561 11.755H14.9361V6.715H11.9811V8.98C11.9811 10.1 11.8061 11.025 11.4561 11.755ZM24.7048 12.055C23.9348 12.815 22.9998 13.195 21.8998 13.195C20.7998 13.195 19.8648 12.815 19.0948 12.055C18.3348 11.295 17.9548 10.36 17.9548 9.25C17.9548 8.14 18.3348 7.205 19.0948 6.445C19.8648 5.685 20.7998 5.305 21.8998 5.305C22.9998 5.305 23.9348 5.685 24.7048 6.445C25.4748 7.205 25.8598 8.14 25.8598 9.25C25.8598 10.36 25.4748 11.295 24.7048 12.055ZM21.8998 11.92C22.6498 11.92 23.2798 11.665 23.7898 11.155C24.2998 10.645 24.5548 10.01 24.5548 9.25C24.5548 8.49 24.2998 7.855 23.7898 7.345C23.2798 6.835 22.6498 6.58 21.8998 6.58C21.1598 6.58 20.5348 6.835 20.0248 7.345C19.5148 7.855 19.2598 8.49 19.2598 9.25C19.2598 10.01 19.5148 10.645 20.0248 11.155C20.5348 11.665 21.1598 11.92 21.8998 11.92Z" fill="#2E2F37"/>
</svg>
