<svg width="56" height="67" viewBox="0 0 56 67" fill="none" xmlns="http://www.w3.org/2000/svg">
<path d="M44.334 23.3211H28.0005C27.374 23.3211 26.8662 23.8259 26.8662 24.4485C26.8662 25.0712 27.374 25.5759 28.0005 25.5759H44.334C44.9604 25.5759 45.4682 25.0712 45.4682 24.4485C45.4682 23.8259 44.9604 23.3211 44.334 23.3211Z" fill="#56AB00"/>
<path d="M34.7921 28.7326H28.0005C27.374 28.7326 26.8662 29.2374 26.8662 29.86C26.8662 30.4827 27.374 30.9874 28.0005 30.9874H34.7921C35.4185 30.9874 35.9263 30.4827 35.9263 29.86C35.9263 29.2374 35.4185 28.7326 34.7921 28.7326Z" fill="#56AB00"/>
<path d="M44.334 35.4971H28.0005C27.374 35.4971 26.8662 36.0018 26.8662 36.6245C26.8662 37.2471 27.374 37.7519 28.0005 37.7519H44.334C44.9604 37.7519 45.4682 37.2471 45.4682 36.6245C45.4682 36.0018 44.9604 35.4971 44.334 35.4971Z" fill="#56AB00"/>
<path d="M34.7921 40.9086H28.0005C27.374 40.9086 26.8662 41.4133 26.8662 42.036C26.8662 42.6587 27.374 43.1634 28.0005 43.1634H34.7921C35.4185 43.1634 35.9263 42.6587 35.9263 42.036C35.9263 41.4133 35.4185 40.9086 34.7921 40.9086Z" fill="#56AB00"/>
<path d="M44.334 47.673H28.0005C27.374 47.673 26.8662 48.1777 26.8662 48.8004C26.8662 49.4231 27.374 49.9278 28.0005 49.9278H44.334C44.9604 49.9278 45.4682 49.4231 45.4682 48.8004C45.4682 48.1777 44.9604 47.673 44.334 47.673Z" fill="#56AB00"/>
<path d="M34.7921 53.0845H28.0005C27.374 53.0845 26.8662 53.5893 26.8662 54.2119C26.8662 54.8346 27.374 55.3393 28.0005 55.3393H34.7921C35.4185 55.3393 35.9263 54.8346 35.9263 54.2119C35.9263 53.5893 35.4185 53.0845 34.7921 53.0845Z" fill="#56AB00"/>
<path d="M37.7839 4.46958L37.8128 4.49698H37.8526H49.6271C52.6219 4.49698 55.0575 6.91874 55.0574 9.89396V61.503C55.0574 64.4782 52.6218 66.9 49.627 66.9H6.37319C3.37839 66.9 0.942773 64.4782 0.942773 61.503V9.89396C0.942773 6.91874 3.37839 4.49698 6.37319 4.49698H18.1451H18.185L18.2139 4.46958C19.4485 3.30028 21.1169 2.58028 22.9526 2.58028H23.9486H24.0099L24.0377 2.52559C24.7806 1.06402 26.3069 0.1 28 0.1C29.6931 0.1 31.2196 1.06403 31.9623 2.52559L31.9901 2.58028H32.0515H33.0451C34.8808 2.58028 36.5493 3.30028 37.7839 4.46958ZM37.7357 9.11933H37.8445L37.8353 9.01091C37.6287 6.56327 35.5589 4.63509 33.0451 4.63509H31.2796C30.8141 4.63509 30.4063 4.32613 30.2827 3.88103L30.1863 3.9078L30.2827 3.88103C30.0001 2.86406 29.0614 2.1548 28.0001 2.1548C26.9389 2.1548 26.0002 2.86406 25.7175 3.88102L25.8139 3.9078L25.7175 3.88103C25.5939 4.32614 25.1862 4.63509 24.7205 4.63509H22.9527C20.439 4.63509 18.3691 6.56327 18.1624 9.01091L18.1533 9.11933H18.2621H37.7357ZM16.6476 6.69196L16.7091 6.55178H16.556H6.37319C4.51994 6.55178 3.01129 8.05044 3.01129 9.89396V61.5031C3.01129 63.3466 4.51994 64.8453 6.37319 64.8453H49.6271C51.4803 64.8453 52.989 63.3466 52.989 61.5031V9.89396C52.989 8.05044 51.4803 6.55178 49.6271 6.55178H39.4418H39.2888L39.3503 6.69196C39.7165 7.52657 39.9209 8.44674 39.9209 9.41392V10.1467C39.9209 10.7136 39.4584 11.1741 38.8866 11.1741H17.1113C16.5395 11.1741 16.077 10.7136 16.077 10.1467V9.41392C16.077 8.44663 16.2814 7.52657 16.6476 6.69196Z" fill="#2E2F37" stroke="#F4F4F4" stroke-width="0.2"/>
<path d="M20.7873 23.0501C20.3443 22.6098 19.6261 22.6098 19.1832 23.05L14.3329 27.8711L12.8387 26.3859C12.3958 25.9457 11.6776 25.9457 11.2345 26.3859C10.7916 26.8261 10.7916 27.54 11.2345 27.9803L13.5308 30.2628C13.7524 30.4829 14.0426 30.593 14.3329 30.593C14.6231 30.593 14.9135 30.4829 15.1349 30.2628L20.7873 24.6446C21.2302 24.2043 21.2302 23.4905 20.7873 23.0501Z" fill="#56AB00"/>
<path d="M18.0191 47.673H12.5747C11.9482 47.673 11.4404 48.1777 11.4404 48.8004V54.2119C11.4404 54.8346 11.9482 55.3393 12.5747 55.3393H18.0191C18.6456 55.3393 19.1534 54.8346 19.1534 54.2119V48.8004C19.1534 48.1777 18.6456 47.673 18.0191 47.673ZM16.8849 53.0845H13.7089V49.9278H16.8849V53.0845Z" fill="#56AB00"/>
<path d="M18.0191 35.4971H12.5747C11.9482 35.4971 11.4404 36.0018 11.4404 36.6245V42.036C11.4404 42.6587 11.9482 43.1634 12.5747 43.1634H18.0191C18.6456 43.1634 19.1534 42.6587 19.1534 42.036V36.6245C19.1534 36.0018 18.6456 35.4971 18.0191 35.4971ZM16.8849 40.9086H13.7089V37.7519H16.8849V40.9086Z" fill="#56AB00"/>
</svg>
