<svg width="40" height="40" viewBox="0 0 40 40" fill="none" xmlns="http://www.w3.org/2000/svg">
<circle r="19.5" transform="matrix(-1 0 0 1 20 20)" fill="white" stroke="white"/>
<path d="M15.2481 18.2333L20.6057 23.8666L18.9572 25.6L13.5996 19.9666L15.2481 18.2333Z" fill="url(#paint0_linear)"/>
<path d="M15.2481 18.2333L20.6057 23.8666L18.9572 25.6L13.5996 19.9666L15.2481 18.2333Z" fill="url(#paint1_linear)" style="mix-blend-mode:overlay"/>
<path d="M25.5511 15.2L27.1996 16.9333L18.9572 25.6L17.3087 23.8667L25.5511 15.2Z" fill="url(#paint2_linear)"/>
<path d="M25.5511 15.2L27.1996 16.9333L18.9572 25.6L17.3087 23.8667L25.5511 15.2Z" fill="url(#paint3_linear)" style="mix-blend-mode:overlay"/>
<defs>
<linearGradient id="paint0_linear" x1="39.3489" y1="25.6" x2="14.0076" y2="25.6" gradientUnits="userSpaceOnUse">
<stop stop-color="#FFE24D"/>
<stop offset="1" stop-color="#FF5631"/>
</linearGradient>
<linearGradient id="paint1_linear" x1="20.3996" y1="0.119998" x2="20.3996" y2="26.64" gradientUnits="userSpaceOnUse">
<stop stop-color="white"/>
<stop offset="1" stop-color="white" stop-opacity="0"/>
</linearGradient>
<linearGradient id="paint2_linear" x1="39.3489" y1="25.6" x2="14.0076" y2="25.6" gradientUnits="userSpaceOnUse">
<stop stop-color="#FFE24D"/>
<stop offset="1" stop-color="#FF5631"/>
</linearGradient>
<linearGradient id="paint3_linear" x1="20.3996" y1="0.119998" x2="20.3996" y2="26.64" gradientUnits="userSpaceOnUse">
<stop stop-color="white"/>
<stop offset="1" stop-color="white" stop-opacity="0"/>
</linearGradient>
</defs>
</svg>
