<svg width="54" height="55" viewBox="0 0 54 55" fill="none" xmlns="http://www.w3.org/2000/svg">
<rect opacity="0.4" x="0.5" y="1.37109" width="53" height="53" rx="26.5" stroke="#BDBDBD"/>
<path d="M36.0868 32.5849L33.585 30.0771C33.0866 29.5797 32.2614 29.5948 31.7457 30.1118L30.4853 31.3748C30.4057 31.3308 30.3233 31.2849 30.2366 31.2362C29.4406 30.7941 28.3512 30.1883 27.2049 29.0385C26.0551 27.8863 25.4501 26.7927 25.0077 25.9944C24.961 25.9099 24.9163 25.8283 24.8721 25.7509L25.7181 24.9043L26.134 24.4869C26.6504 23.9692 26.6647 23.1423 26.1675 22.6434L23.6657 20.1353C23.1685 19.6372 22.3429 19.6523 21.8265 20.1701L21.1214 20.8808L21.1406 20.9C20.9042 21.2024 20.7066 21.5511 20.5596 21.9272C20.4241 22.2851 20.3397 22.6267 20.3011 22.969C19.9708 25.7139 21.2223 28.2225 24.6187 31.6267C29.3135 36.3319 33.097 35.9764 33.2602 35.9591C33.6157 35.9165 33.9564 35.8313 34.3026 35.6966C34.6746 35.551 35.0223 35.3532 35.3238 35.1168L35.3392 35.1305L36.0535 34.4294C36.5689 33.9117 36.5837 33.0846 36.0868 32.5849Z" fill="#FBBA00"/>
</svg>
