<svg width="54" height="55" viewBox="0 0 54 55" fill="none" xmlns="http://www.w3.org/2000/svg">
<rect opacity="0.4" x="0.5" y="1.37109" width="53" height="53" rx="26.5" stroke="#BDBDBD"/>
<path d="M27.5 17.8711C23.3645 17.8711 20 21.3228 20 25.5655C20 29.5758 26.2251 36.4799 26.9349 37.2549L27.5 37.8711L28.0651 37.2549C28.775 36.4805 35 29.5758 35 25.5655C35.0003 21.3228 31.6358 17.8711 27.5 17.8711ZM27.5 28.7496C25.7888 28.7496 24.3965 27.3213 24.3965 25.5658C24.3965 23.8102 25.7888 22.3819 27.5 22.3819C29.2115 22.3819 30.6034 23.8103 30.6034 25.5658C30.6034 27.3213 29.2115 28.7496 27.5 28.7496Z" fill="#FBBA00"/>
</svg>
