<svg width="54" height="55" viewBox="0 0 54 55" fill="none" xmlns="http://www.w3.org/2000/svg">
<rect opacity="0.4" x="0.5" y="1.37109" width="53" height="53" rx="26.5" stroke="#BDBDBD"/>
<g clip-path="url(#clip0)">
<path d="M34.3868 34.8651C34.7912 34.8651 35.1417 34.7423 35.4396 34.5L30.3418 29.8147C30.2195 29.8952 30.101 29.9735 29.989 30.0479C29.6075 30.3062 29.2978 30.5078 29.0601 30.6523C28.8224 30.797 28.5061 30.9446 28.1113 31.0953C27.7162 31.2461 27.3481 31.3213 27.0067 31.3213H26.9967H26.9867C26.6452 31.3213 26.2771 31.2461 25.8821 31.0953C25.487 30.9446 25.1707 30.797 24.9332 30.6523C24.6955 30.5078 24.386 30.3063 24.0043 30.0479C23.898 29.9763 23.78 29.8976 23.6525 29.8135L18.5537 34.5C18.8516 34.7423 19.2023 34.8651 19.6067 34.8651H34.3868Z" fill="#FBBA00"/>
<path d="M19.0142 26.8645C18.6328 26.6307 18.2945 26.363 18 26.0615V33.1898L22.4932 29.0604C21.5943 28.4836 20.4361 27.7525 19.0142 26.8645Z" fill="#FBBA00"/>
<path d="M34.9893 26.8645C33.6216 27.7152 32.4592 28.4476 31.502 29.062L35.9933 33.1899V26.0615C35.7054 26.357 35.3707 26.6245 34.9893 26.8645Z" fill="#FBBA00"/>
<path d="M34.3874 21.8721H19.6074C19.0918 21.8721 18.6954 22.0321 18.4177 22.3518C18.1397 22.6717 18.001 23.0717 18.001 23.5514C18.001 23.939 18.1851 24.3588 18.5532 24.8112C18.9212 25.2634 19.3129 25.6185 19.7279 25.8769C19.9555 26.0246 20.6416 26.463 21.7864 27.1919C22.4044 27.5855 22.9418 27.9285 23.4036 28.2246C23.7973 28.4766 24.1368 28.6949 24.417 28.8761C24.4492 28.8968 24.4998 28.9301 24.567 28.9742C24.6393 29.022 24.7309 29.0826 24.8439 29.1576C25.0614 29.3022 25.2421 29.4191 25.3861 29.5084C25.5298 29.5977 25.704 29.6974 25.9083 29.8082C26.1124 29.9189 26.305 30.0021 26.4857 30.0574C26.6664 30.1127 26.8337 30.1404 26.9877 30.1404H26.9977H27.0077C27.1616 30.1404 27.3289 30.1127 27.5097 30.0574C27.6904 30.0021 27.8828 29.919 28.0871 29.8082C28.2912 29.6974 28.4651 29.5975 28.6093 29.5084C28.7532 29.4191 28.934 29.3022 29.1515 29.1576C29.2643 29.0826 29.3558 29.022 29.4282 28.9744C29.4954 28.9301 29.546 28.897 29.5783 28.8761C29.7967 28.7365 30.137 28.5191 30.5944 28.2271C31.4269 27.6956 32.6528 26.9132 34.2775 25.8769C34.7661 25.5632 35.1743 25.1847 35.5024 24.7419C35.8299 24.2991 35.9941 23.8346 35.9941 23.3486C35.9941 22.9425 35.8349 22.5951 35.5172 22.3057C35.1991 22.0167 34.8225 21.8721 34.3874 21.8721Z" fill="#FBBA00"/>
</g>
<defs>
<clipPath id="clip0">
<rect width="18" height="13" fill="white" transform="translate(18 21.8711)"/>
</clipPath>
</defs>
</svg>
