<svg width="118" height="115" viewBox="0 0 118 115" fill="none" xmlns="http://www.w3.org/2000/svg">
<path d="M79.5549 65.5149L95.5797 77.4274L80.5125 92.1235" stroke="url(#paint0_linear)" stroke-width="2.28692" stroke-miterlimit="10"/>
<path d="M79.5549 65.5149L95.5797 77.4274L80.5125 92.1235" stroke="url(#paint1_linear)" stroke-width="2.28692" stroke-miterlimit="10" style="mix-blend-mode:overlay"/>
<path d="M95.5786 77.4272C95.5786 77.4272 73.398 82.6768 53.064 73.2376C32.7299 63.7983 29.3253 38.091 29.3253 38.091" stroke="url(#paint2_linear)" stroke-width="2.28692" stroke-miterlimit="10"/>
<path d="M95.5786 77.4272C95.5786 77.4272 73.398 82.6768 53.064 73.2376C32.7299 63.7983 29.3253 38.091 29.3253 38.091" stroke="url(#paint3_linear)" stroke-width="2.28692" stroke-miterlimit="10" style="mix-blend-mode:overlay"/>
<path d="M23.9142 29.6377C23.0061 33.027 25.0471 36.5421 28.5072 37.4692C31.9672 38.3963 35.4923 36.3727 36.4005 32.9833C37.3087 29.594 35.2677 26.0789 31.8076 25.1518C28.3475 24.2247 24.8224 26.2483 23.9142 29.6377Z" fill="#F4F4F4"/>
<path d="M23.9142 29.6377C23.0061 33.027 25.0471 36.5421 28.5072 37.4692C31.9672 38.3963 35.4923 36.3727 36.4005 32.9833C37.3087 29.594 35.2677 26.0789 31.8076 25.1518C28.3475 24.2247 24.8224 26.2483 23.9142 29.6377Z" stroke="url(#paint4_linear)" stroke-width="2.28692"/>
<path d="M23.9142 29.6377C23.0061 33.027 25.0471 36.5421 28.5072 37.4692C31.9672 38.3963 35.4923 36.3727 36.4005 32.9833C37.3087 29.594 35.2677 26.0789 31.8076 25.1518C28.3475 24.2247 24.8224 26.2483 23.9142 29.6377Z" stroke="url(#paint5_linear)" stroke-width="2.28692" style="mix-blend-mode:overlay"/>
<defs>
<linearGradient id="paint0_linear" x1="93.9191" y1="104.727" x2="67.2774" y2="79.1746" gradientUnits="userSpaceOnUse">
<stop stop-color="#FFE24D"/>
<stop offset="1" stop-color="#FF5631"/>
</linearGradient>
<linearGradient id="paint1_linear" x1="109.468" y1="48.6361" x2="72.7417" y2="87.7045" gradientUnits="userSpaceOnUse">
<stop stop-color="white"/>
<stop offset="1" stop-color="white" stop-opacity="0"/>
</linearGradient>
<linearGradient id="paint2_linear" x1="125.163" y1="143.432" x2="24.2447" y2="46.6408" gradientUnits="userSpaceOnUse">
<stop stop-color="#FFE24D"/>
<stop offset="1" stop-color="#FF5631"/>
</linearGradient>
<linearGradient id="paint3_linear" x1="96.1702" y1="22.603" x2="47.5666" y2="74.3055" gradientUnits="userSpaceOnUse">
<stop stop-color="white"/>
<stop offset="1" stop-color="white" stop-opacity="0"/>
</linearGradient>
<linearGradient id="paint4_linear" x1="7.73579" y1="33.0873" x2="35.118" y2="40.4244" gradientUnits="userSpaceOnUse">
<stop stop-color="#FFE24D"/>
<stop offset="1" stop-color="#FF5631"/>
</linearGradient>
<linearGradient id="paint5_linear" x1="37.7474" y1="2.98411" x2="27.822" y2="40.0263" gradientUnits="userSpaceOnUse">
<stop stop-color="white"/>
<stop offset="1" stop-color="white" stop-opacity="0"/>
</linearGradient>
</defs>
</svg>
