<svg width="64" height="64" viewBox="0 0 64 64" fill="none" xmlns="http://www.w3.org/2000/svg">
<path d="M0 0L63.625 63.625V0H0Z" fill="#56AB00"/>
<path d="M34.3786 21.4787L32.3085 19.4085L32.7779 16.7005L30.0699 17.1699L27.9998 15.0998L33.2112 14.1971L34.0898 9.15424L36.1599 11.2244L35.7146 13.7639L38.2541 13.3185L40.3242 15.3887L35.2813 16.2673L34.3786 21.4787Z" fill="white"/>
<path d="M45.3945 20.4589L46.7184 21.7828L40.7006 27.8006L38.9434 26.0434L41.9523 23.0345L36.3678 23.4678L35.0439 22.1439L41.0617 16.1261L42.8189 17.8833L39.81 20.8922L45.3945 20.4589Z" fill="white"/>
<path d="M52.9176 27.9821L51.1845 29.7152L49.3912 27.9219L45.1066 32.2066L43.3012 30.4012L47.5859 26.1166L45.7685 24.2992L47.5016 22.5661L52.9176 27.9821Z" fill="white"/>
<path d="M54.0493 9.70246C54.2121 9.63815 54.3732 9.79917 54.3088 9.96195L53.2686 12.5951C53.2419 12.6628 53.254 12.7398 53.3004 12.7959L55.1034 14.9787C55.2149 15.1137 55.1115 15.3166 54.9368 15.3057L52.1111 15.1301C52.0384 15.1255 51.969 15.1609 51.9299 15.2224L50.4111 17.6116C50.3172 17.7594 50.0923 17.7237 50.0487 17.5542L49.3425 14.8126C49.3244 14.742 49.2693 14.6869 49.1987 14.6688L46.4571 13.9626C46.2876 13.919 46.2519 13.6941 46.3997 13.6002L48.7889 12.0814C48.8504 12.0423 48.8858 11.9729 48.8812 11.9002L48.7056 9.07448C48.6947 8.8998 48.8976 8.79642 49.0326 8.90788L51.2154 10.7109C51.2715 10.7573 51.3485 10.7694 51.4162 10.7427L54.0493 9.70246Z" fill="white"/>
</svg>
