<svg width="50" height="50" viewBox="0 0 50 50" fill="none" xmlns="http://www.w3.org/2000/svg">
<circle opacity="0.2" r="24.5" transform="matrix(-1 0 0 1 25 25)" stroke="white"/>
<path d="M19.0606 22.7916L25.7576 29.8333L23.697 32L17 24.9583L19.0606 22.7916Z" fill="url(#paint0_linear)"/>
<path d="M19.0606 22.7916L25.7576 29.8333L23.697 32L17 24.9583L19.0606 22.7916Z" fill="url(#paint1_linear)" style="mix-blend-mode:overlay"/>
<path d="M31.9394 19L34 21.1667L23.697 32L21.6363 29.8334L31.9394 19Z" fill="url(#paint2_linear)"/>
<path d="M31.9394 19L34 21.1667L23.697 32L21.6363 29.8334L31.9394 19Z" fill="url(#paint3_linear)" style="mix-blend-mode:overlay"/>
<defs>
<linearGradient id="paint0_linear" x1="49.1867" y1="32" x2="17.51" y2="32" gradientUnits="userSpaceOnUse">
<stop stop-color="#FFE24D"/>
<stop offset="1" stop-color="#FF5631"/>
</linearGradient>
<linearGradient id="paint1_linear" x1="25.5" y1="0.149999" x2="25.5" y2="33.3" gradientUnits="userSpaceOnUse">
<stop stop-color="white"/>
<stop offset="1" stop-color="white" stop-opacity="0"/>
</linearGradient>
<linearGradient id="paint2_linear" x1="49.1867" y1="32" x2="17.51" y2="32" gradientUnits="userSpaceOnUse">
<stop stop-color="#FFE24D"/>
<stop offset="1" stop-color="#FF5631"/>
</linearGradient>
<linearGradient id="paint3_linear" x1="25.5" y1="0.149999" x2="25.5" y2="33.3" gradientUnits="userSpaceOnUse">
<stop stop-color="white"/>
<stop offset="1" stop-color="white" stop-opacity="0"/>
</linearGradient>
</defs>
</svg>
