<svg width="539" height="322" viewBox="0 0 539 322" fill="none" xmlns="http://www.w3.org/2000/svg">
<path d="M150.871 47.9359C115.191 37.7417 91.1618 32.1728 68.2113 31.2054C56.7414 30.7219 46.8896 31.6839 39.609 33.7982C32.3305 35.9118 27.002 39.2478 24.7808 44.4574C21.2851 52.6561 24.8638 63.6215 34.605 75.7277C44.4279 87.9355 60.0996 101.935 80.3473 116.845C120.862 146.677 179.966 180.348 248.062 210.816C316.157 241.284 380.437 262.818 429.334 272.99C453.771 278.074 474.447 280.337 489.865 279.422C505.154 278.516 515.84 274.442 519.335 266.243C521.292 261.654 520.779 256.242 518.284 250.303C515.792 244.371 511.282 237.805 505.046 230.766C492.57 216.686 477.687 204.866 452.708 187.762C477.591 204.8 491.651 218.635 503.883 232.44C510.001 239.345 514.314 246.527 516.635 252.052C518.952 257.569 518.287 261.288 516.68 265.055C513.798 271.814 504.623 275.821 489.456 276.721C474.418 277.613 454.042 275.407 429.723 270.348C381.106 260.234 317.049 238.786 249.099 208.384C181.149 177.981 122.257 144.418 81.9754 114.757C61.825 99.9189 46.3987 86.106 36.8175 74.1986C27.1545 62.1897 23.7885 52.5709 26.6703 45.8119C28.4926 41.5382 32.8067 37.689 39.6759 35.6942C52.8463 31.8695 72.7689 31.0356 97.5781 35.5674C122.387 40.0993 150.871 47.9359 150.871 47.9359Z" fill="url(#paint0_linear)"/>
<path d="M150.871 47.9359C115.191 37.7417 91.1618 32.1728 68.2113 31.2054C56.7414 30.7219 46.8896 31.6839 39.609 33.7982C32.3305 35.9118 27.002 39.2478 24.7808 44.4574C21.2851 52.6561 24.8638 63.6215 34.605 75.7277C44.4279 87.9355 60.0996 101.935 80.3473 116.845C120.862 146.677 179.966 180.348 248.062 210.816C316.157 241.284 380.437 262.818 429.334 272.99C453.771 278.074 474.447 280.337 489.865 279.422C505.154 278.516 515.84 274.442 519.335 266.243C521.292 261.654 520.779 256.242 518.284 250.303C515.792 244.371 511.282 237.805 505.046 230.766C492.57 216.686 477.687 204.866 452.708 187.762C477.591 204.8 491.651 218.635 503.883 232.44C510.001 239.345 514.314 246.527 516.635 252.052C518.952 257.569 518.287 261.288 516.68 265.055C513.798 271.814 504.623 275.821 489.456 276.721C474.418 277.613 454.042 275.407 429.723 270.348C381.106 260.234 317.049 238.786 249.099 208.384C181.149 177.981 122.257 144.418 81.9754 114.757C61.825 99.9189 46.3987 86.106 36.8175 74.1986C27.1545 62.1897 23.7885 52.5709 26.6703 45.8119C28.4926 41.5382 32.8067 37.689 39.6759 35.6942C52.8463 31.8695 72.7689 31.0356 97.5781 35.5674C122.387 40.0993 150.871 47.9359 150.871 47.9359Z" fill="url(#paint1_linear)" style="mix-blend-mode:overlay"/>
<defs>
<linearGradient id="paint0_linear" x1="-440.98" y1="-97.4789" x2="809.305" y2="426.607" gradientUnits="userSpaceOnUse">
<stop stop-color="#FFE24D"/>
<stop offset="1" stop-color="#FF5631"/>
<stop offset="1" stop-color="#FF5631"/>
</linearGradient>
<linearGradient id="paint1_linear" x1="353.093" y1="-34.7067" x2="239.593" y2="218.966" gradientUnits="userSpaceOnUse">
<stop stop-color="white"/>
<stop offset="1" stop-color="white" stop-opacity="0"/>
</linearGradient>
</defs>
</svg>
