<svg width="286" height="48" viewBox="0 0 286 48" fill="none" xmlns="http://www.w3.org/2000/svg">
<path d="M57.94 3.4C59.068 3.4 60.01 3.778 60.766 4.534C61.522 5.29 61.9 6.232 61.9 7.36C61.9 8.488 61.522 9.43 60.766 10.186C60.01 10.942 59.068 11.32 57.94 11.32H54.7V16H53.44V3.4H57.94ZM57.94 10.132C58.72 10.132 59.362 9.874 59.866 9.358C60.382 8.83 60.64 8.164 60.64 7.36C60.64 6.556 60.382 5.896 59.866 5.38C59.362 4.852 58.72 4.588 57.94 4.588H54.7V10.132H57.94ZM70.8965 7H72.0845V16H70.8965V14.236C70.0685 15.556 68.8565 16.216 67.2605 16.216C65.9765 16.216 64.8785 15.76 63.9665 14.848C63.0665 13.936 62.6165 12.82 62.6165 11.5C62.6165 10.18 63.0665 9.064 63.9665 8.152C64.8785 7.24 65.9765 6.784 67.2605 6.784C68.8565 6.784 70.0685 7.444 70.8965 8.764V7ZM64.8305 14.038C65.5145 14.722 66.3545 15.064 67.3505 15.064C68.3465 15.064 69.1865 14.722 69.8705 14.038C70.5545 13.342 70.8965 12.496 70.8965 11.5C70.8965 10.504 70.5545 9.664 69.8705 8.98C69.1865 8.284 68.3465 7.936 67.3505 7.936C66.3545 7.936 65.5145 8.284 64.8305 8.98C64.1465 9.664 63.8045 10.504 63.8045 11.5C63.8045 12.496 64.1465 13.342 64.8305 14.038ZM79.2438 11.374C80.2878 11.77 80.8098 12.49 80.8098 13.534C80.8098 14.278 80.5158 14.914 79.9278 15.442C79.3518 15.958 78.5238 16.216 77.4438 16.216C75.6318 16.216 74.4438 15.496 73.8798 14.056L74.8878 13.462C75.2598 14.53 76.1118 15.064 77.4438 15.064C78.1398 15.064 78.6738 14.914 79.0458 14.614C79.4298 14.314 79.6218 13.93 79.6218 13.462C79.6218 13.042 79.4658 12.7 79.1538 12.436C78.8418 12.172 78.4218 12.04 77.8938 12.04H76.5798V10.888H77.5338C78.0498 10.888 78.4518 10.762 78.7398 10.51C79.0398 10.246 79.1898 9.886 79.1898 9.43C79.1898 8.998 79.0158 8.644 78.6678 8.368C78.3198 8.08 77.8518 7.936 77.2638 7.936C76.1358 7.936 75.3858 8.386 75.0138 9.286L74.0238 8.71C74.6238 7.426 75.7038 6.784 77.2638 6.784C78.2118 6.784 78.9678 7.036 79.5318 7.54C80.0958 8.032 80.3778 8.638 80.3778 9.358C80.3778 10.282 79.9998 10.954 79.2438 11.374ZM87.4395 6.784C88.7235 6.784 89.8155 7.24 90.7155 8.152C91.6275 9.064 92.0835 10.18 92.0835 11.5C92.0835 12.82 91.6275 13.936 90.7155 14.848C89.8155 15.76 88.7235 16.216 87.4395 16.216C85.8435 16.216 84.6315 15.556 83.8035 14.236V19.6H82.6155V7H83.8035V8.764C84.6315 7.444 85.8435 6.784 87.4395 6.784ZM84.8295 14.038C85.5135 14.722 86.3535 15.064 87.3495 15.064C88.3455 15.064 89.1855 14.722 89.8695 14.038C90.5535 13.342 90.8955 12.496 90.8955 11.5C90.8955 10.504 90.5535 9.664 89.8695 8.98C89.1855 8.284 88.3455 7.936 87.3495 7.936C86.3535 7.936 85.5135 8.284 84.8295 8.98C84.1455 9.664 83.8035 10.504 83.8035 11.5C83.8035 12.496 84.1455 13.342 84.8295 14.038ZM101.799 7H102.987V16H101.799V14.236C100.971 15.556 99.7588 16.216 98.1628 16.216C96.8788 16.216 95.7808 15.76 94.8688 14.848C93.9688 13.936 93.5188 12.82 93.5188 11.5C93.5188 10.18 93.9688 9.064 94.8688 8.152C95.7808 7.24 96.8788 6.784 98.1628 6.784C99.7588 6.784 100.971 7.444 101.799 8.764V7ZM95.7328 14.038C96.4168 14.722 97.2568 15.064 98.2528 15.064C99.2488 15.064 100.089 14.722 100.773 14.038C101.457 13.342 101.799 12.496 101.799 11.5C101.799 10.504 101.457 9.664 100.773 8.98C100.089 8.284 99.2488 7.936 98.2528 7.936C97.2568 7.936 96.4168 8.284 95.7328 8.98C95.0488 9.664 94.7068 10.504 94.7068 11.5C94.7068 12.496 95.0488 13.342 95.7328 14.038ZM109.498 16.216C108.202 16.216 107.122 15.79 106.258 14.938C105.394 14.074 104.962 12.958 104.962 11.59C104.962 10.054 105.19 8.878 105.646 8.062C106.102 7.234 107.026 6.484 108.418 5.812C108.682 5.68 109.03 5.524 109.462 5.344C109.906 5.164 110.236 5.02 110.452 4.912C110.68 4.804 110.926 4.666 111.19 4.498C111.454 4.318 111.652 4.12 111.784 3.904C111.916 3.688 112 3.43 112.036 3.13L112.972 3.67C112.924 3.958 112.828 4.228 112.684 4.48C112.54 4.732 112.39 4.936 112.234 5.092C112.09 5.248 111.856 5.422 111.532 5.614C111.22 5.794 110.974 5.926 110.794 6.01C110.626 6.082 110.326 6.208 109.894 6.388C109.474 6.568 109.192 6.688 109.048 6.748C108.208 7.108 107.59 7.486 107.194 7.882C106.798 8.266 106.516 8.77 106.348 9.394C106.756 8.854 107.272 8.458 107.896 8.206C108.532 7.942 109.15 7.81 109.75 7.81C110.95 7.81 111.94 8.206 112.72 8.998C113.512 9.778 113.908 10.78 113.908 12.004C113.908 13.216 113.488 14.224 112.648 15.028C111.82 15.82 110.77 16.216 109.498 16.216ZM109.498 15.028C110.434 15.028 111.202 14.746 111.802 14.182C112.414 13.606 112.72 12.88 112.72 12.004C112.72 11.116 112.432 10.39 111.856 9.826C111.292 9.25 110.536 8.962 109.588 8.962C108.736 8.962 107.962 9.232 107.266 9.772C106.57 10.3 106.222 11.008 106.222 11.896C106.222 12.808 106.534 13.558 107.158 14.146C107.794 14.734 108.574 15.028 109.498 15.028ZM123.257 14.866C122.345 15.766 121.229 16.216 119.909 16.216C118.589 16.216 117.467 15.766 116.543 14.866C115.631 13.954 115.175 12.832 115.175 11.5C115.175 10.168 115.631 9.052 116.543 8.152C117.467 7.24 118.589 6.784 119.909 6.784C121.229 6.784 122.345 7.24 123.257 8.152C124.181 9.052 124.643 10.168 124.643 11.5C124.643 12.832 124.181 13.954 123.257 14.866ZM117.389 14.038C118.073 14.722 118.913 15.064 119.909 15.064C120.905 15.064 121.745 14.722 122.429 14.038C123.113 13.342 123.455 12.496 123.455 11.5C123.455 10.504 123.113 9.664 122.429 8.98C121.745 8.284 120.905 7.936 119.909 7.936C118.913 7.936 118.073 8.284 117.389 8.98C116.705 9.664 116.363 10.504 116.363 11.5C116.363 12.496 116.705 13.342 117.389 14.038ZM132.76 7V8.152H129.574V16H128.386V8.152H125.2V7H132.76ZM141.479 16H139.895L135.395 11.662V16H134.207V7H135.395V10.978L139.679 7H141.299L136.655 11.32L141.479 16ZM149.945 7H151.133V16H149.945V14.236C149.117 15.556 147.905 16.216 146.309 16.216C145.025 16.216 143.927 15.76 143.015 14.848C142.115 13.936 141.665 12.82 141.665 11.5C141.665 10.18 142.115 9.064 143.015 8.152C143.927 7.24 145.025 6.784 146.309 6.784C147.905 6.784 149.117 7.444 149.945 8.764V7ZM143.879 14.038C144.563 14.722 145.403 15.064 146.399 15.064C147.395 15.064 148.235 14.722 148.919 14.038C149.603 13.342 149.945 12.496 149.945 11.5C149.945 10.504 149.603 9.664 148.919 8.98C148.235 8.284 147.395 7.936 146.399 7.936C145.403 7.936 144.563 8.284 143.879 8.98C143.195 9.664 142.853 10.504 142.853 11.5C142.853 12.496 143.195 13.342 143.879 14.038ZM164.701 7H165.709V16H164.521V9.07L159.157 16H158.149V7H159.337V13.93L164.701 7ZM180.281 7V16H179.093V8.152H173.909V16H172.721V7H180.281ZM187.617 6.784C188.901 6.784 189.993 7.24 190.893 8.152C191.805 9.064 192.261 10.18 192.261 11.5C192.261 12.82 191.805 13.936 190.893 14.848C189.993 15.76 188.901 16.216 187.617 16.216C186.021 16.216 184.809 15.556 183.981 14.236V19.6H182.793V7H183.981V8.764C184.809 7.444 186.021 6.784 187.617 6.784ZM185.007 14.038C185.691 14.722 186.531 15.064 187.527 15.064C188.523 15.064 189.363 14.722 190.047 14.038C190.731 13.342 191.073 12.496 191.073 11.5C191.073 10.504 190.731 9.664 190.047 8.98C189.363 8.284 188.523 7.936 187.527 7.936C186.531 7.936 185.691 8.284 185.007 8.98C184.323 9.664 183.981 10.504 183.981 11.5C183.981 12.496 184.323 13.342 185.007 14.038ZM201.779 14.866C200.867 15.766 199.751 16.216 198.431 16.216C197.111 16.216 195.989 15.766 195.065 14.866C194.153 13.954 193.697 12.832 193.697 11.5C193.697 10.168 194.153 9.052 195.065 8.152C195.989 7.24 197.111 6.784 198.431 6.784C199.751 6.784 200.867 7.24 201.779 8.152C202.703 9.052 203.165 10.168 203.165 11.5C203.165 12.832 202.703 13.954 201.779 14.866ZM195.911 14.038C196.595 14.722 197.435 15.064 198.431 15.064C199.427 15.064 200.267 14.722 200.951 14.038C201.635 13.342 201.977 12.496 201.977 11.5C201.977 10.504 201.635 9.664 200.951 8.98C200.267 8.284 199.427 7.936 198.431 7.936C197.435 7.936 196.595 8.284 195.911 8.98C195.227 9.664 194.885 10.504 194.885 11.5C194.885 12.496 195.227 13.342 195.911 14.038ZM212.361 14.848H213.621V18.412H212.433V16H205.089V18.412H203.901V14.848H204.999C205.611 14.044 205.917 12.91 205.917 11.446V7H212.361V14.848ZM206.439 14.848H211.173V8.152H207.105V11.446C207.105 12.826 206.883 13.96 206.439 14.848ZM221.142 11.374C222.126 11.734 222.618 12.436 222.618 13.48C222.618 14.212 222.372 14.818 221.88 15.298C221.4 15.766 220.704 16 219.792 16H215.418V7H219.432C220.308 7 220.986 7.228 221.466 7.684C221.946 8.128 222.186 8.704 222.186 9.412C222.186 10.312 221.838 10.966 221.142 11.374ZM219.432 8.152H216.606V10.888H219.432C220.476 10.888 220.998 10.42 220.998 9.484C220.998 9.064 220.86 8.74 220.584 8.512C220.32 8.272 219.936 8.152 219.432 8.152ZM219.792 14.848C220.32 14.848 220.722 14.722 220.998 14.47C221.286 14.218 221.43 13.864 221.43 13.408C221.43 12.988 221.286 12.658 220.998 12.418C220.722 12.166 220.32 12.04 219.792 12.04H216.606V14.848H219.792ZM230.97 7H231.978V16H230.79V9.07L225.426 16H224.418V7H225.606V13.93L230.97 7ZM245.002 16H243.562L239.89 11.662V16H238.702V11.662L235.03 16H233.59L237.622 11.32L233.77 7H235.21L238.702 10.996V7H239.89V10.996L243.382 7H244.822L240.97 11.32L245.002 16ZM250.057 6.784C251.389 6.784 252.463 7.258 253.279 8.206C254.107 9.142 254.521 10.252 254.521 11.536C254.521 11.668 254.509 11.854 254.485 12.094H246.583C246.703 13.006 247.087 13.732 247.735 14.272C248.395 14.8 249.205 15.064 250.165 15.064C250.849 15.064 251.437 14.926 251.929 14.65C252.433 14.362 252.811 13.99 253.063 13.534L254.107 14.146C253.711 14.782 253.171 15.286 252.487 15.658C251.803 16.03 251.023 16.216 250.147 16.216C248.731 16.216 247.579 15.772 246.691 14.884C245.803 13.996 245.359 12.868 245.359 11.5C245.359 10.156 245.797 9.034 246.673 8.134C247.549 7.234 248.677 6.784 250.057 6.784ZM250.057 7.936C249.121 7.936 248.335 8.218 247.699 8.782C247.075 9.334 246.703 10.054 246.583 10.942H253.297C253.177 9.994 252.811 9.256 252.199 8.728C251.587 8.2 250.873 7.936 250.057 7.936ZM262.782 7H263.97V16H262.782V12.076H257.598V16H256.41V7H257.598V10.924H262.782V7ZM273.035 7H274.043V16H272.855V9.07L267.491 16H266.483V7H267.671V13.93L273.035 7ZM280.713 6.784C282.045 6.784 283.119 7.258 283.935 8.206C284.763 9.142 285.177 10.252 285.177 11.536C285.177 11.668 285.165 11.854 285.141 12.094H277.239C277.359 13.006 277.743 13.732 278.391 14.272C279.051 14.8 279.861 15.064 280.821 15.064C281.505 15.064 282.093 14.926 282.585 14.65C283.089 14.362 283.467 13.99 283.719 13.534L284.763 14.146C284.367 14.782 283.827 15.286 283.143 15.658C282.459 16.03 281.679 16.216 280.803 16.216C279.387 16.216 278.235 15.772 277.347 14.884C276.459 13.996 276.015 12.868 276.015 11.5C276.015 10.156 276.453 9.034 277.329 8.134C278.205 7.234 279.333 6.784 280.713 6.784ZM280.713 7.936C279.777 7.936 278.991 8.218 278.355 8.782C277.731 9.334 277.359 10.054 277.239 10.942H283.953C283.833 9.994 283.467 9.256 282.855 8.728C282.243 8.2 281.529 7.936 280.713 7.936ZM60.424 32.466C61.036 32.73 61.522 33.132 61.882 33.672C62.254 34.2 62.44 34.806 62.44 35.49C62.44 36.462 62.098 37.29 61.414 37.974C60.73 38.658 59.902 39 58.93 39H53.44V26.4H58.516C59.452 26.4 60.25 26.736 60.91 27.408C61.57 28.068 61.9 28.86 61.9 29.784C61.9 30.96 61.408 31.854 60.424 32.466ZM58.516 27.588H54.7V31.98H58.516C59.104 31.98 59.602 31.77 60.01 31.35C60.43 30.918 60.64 30.396 60.64 29.784C60.64 29.184 60.43 28.668 60.01 28.236C59.602 27.804 59.104 27.588 58.516 27.588ZM58.93 37.812C59.554 37.812 60.082 37.59 60.514 37.146C60.958 36.69 61.18 36.138 61.18 35.49C61.18 34.854 60.958 34.308 60.514 33.852C60.082 33.396 59.554 33.168 58.93 33.168H54.7V37.812H58.93ZM70.9339 30H72.1219V39H70.9339V37.596C70.2619 38.676 69.2539 39.216 67.9099 39.216C66.8179 39.216 65.9539 38.886 65.3179 38.226C64.6939 37.554 64.3819 36.654 64.3819 35.526V30H65.5699V35.526C65.5699 36.33 65.7799 36.954 66.1999 37.398C66.6319 37.842 67.2379 38.064 68.0179 38.064C68.8819 38.064 69.5839 37.794 70.1239 37.254C70.6639 36.702 70.9339 35.856 70.9339 34.716V30ZM75.571 32.358C75.571 32.766 75.751 33.09 76.111 33.33C76.471 33.57 76.909 33.756 77.425 33.888C77.941 34.02 78.457 34.17 78.973 34.338C79.489 34.494 79.927 34.764 80.287 35.148C80.647 35.52 80.827 36.012 80.827 36.624C80.827 37.392 80.521 38.016 79.909 38.496C79.309 38.976 78.529 39.216 77.569 39.216C76.705 39.216 75.967 39.024 75.355 38.64C74.755 38.256 74.335 37.758 74.095 37.146L75.103 36.552C75.271 37.02 75.571 37.392 76.003 37.668C76.447 37.932 76.969 38.064 77.569 38.064C78.157 38.064 78.649 37.95 79.045 37.722C79.441 37.482 79.639 37.116 79.639 36.624C79.639 36.216 79.459 35.892 79.099 35.652C78.739 35.412 78.301 35.226 77.785 35.094C77.269 34.962 76.753 34.818 76.237 34.662C75.721 34.494 75.283 34.224 74.923 33.852C74.563 33.468 74.383 32.97 74.383 32.358C74.383 31.626 74.671 31.014 75.247 30.522C75.835 30.03 76.573 29.784 77.461 29.784C78.193 29.784 78.835 29.952 79.387 30.288C79.939 30.612 80.347 31.056 80.611 31.62L79.621 32.196C79.273 31.356 78.553 30.936 77.461 30.936C76.945 30.936 76.501 31.062 76.129 31.314C75.757 31.554 75.571 31.902 75.571 32.358ZM83.9269 27.84C83.7589 28.008 83.5549 28.092 83.3149 28.092C83.0749 28.092 82.8709 28.008 82.7029 27.84C82.5349 27.672 82.4509 27.468 82.4509 27.228C82.4509 26.988 82.5349 26.784 82.7029 26.616C82.8709 26.448 83.0749 26.364 83.3149 26.364C83.5549 26.364 83.7589 26.448 83.9269 26.616C84.0949 26.784 84.1789 26.988 84.1789 27.228C84.1789 27.468 84.0949 27.672 83.9269 27.84ZM82.7209 39V30H83.9089V39H82.7209ZM90.6419 29.784C91.7339 29.784 92.5919 30.12 93.2159 30.792C93.8519 31.452 94.1699 32.346 94.1699 33.474V39H92.9819V33.474C92.9819 32.67 92.7659 32.046 92.3339 31.602C91.9139 31.158 91.3139 30.936 90.5339 30.936C89.6699 30.936 88.9679 31.212 88.4279 31.764C87.8879 32.304 87.6179 33.144 87.6179 34.284V39H86.4299V30H87.6179V31.404C88.2899 30.324 89.2979 29.784 90.6419 29.784ZM100.625 29.784C101.957 29.784 103.031 30.258 103.847 31.206C104.675 32.142 105.089 33.252 105.089 34.536C105.089 34.668 105.077 34.854 105.053 35.094H97.151C97.271 36.006 97.655 36.732 98.303 37.272C98.963 37.8 99.773 38.064 100.733 38.064C101.417 38.064 102.005 37.926 102.497 37.65C103.001 37.362 103.379 36.99 103.631 36.534L104.675 37.146C104.279 37.782 103.739 38.286 103.055 38.658C102.371 39.03 101.591 39.216 100.715 39.216C99.299 39.216 98.147 38.772 97.259 37.884C96.371 36.996 95.927 35.868 95.927 34.5C95.927 33.156 96.365 32.034 97.241 31.134C98.117 30.234 99.245 29.784 100.625 29.784ZM100.625 30.936C99.689 30.936 98.903 31.218 98.267 31.782C97.643 32.334 97.271 33.054 97.151 33.942H103.865C103.745 32.994 103.379 32.256 102.767 31.728C102.155 31.2 101.441 30.936 100.625 30.936ZM107.563 32.358C107.563 32.766 107.743 33.09 108.103 33.33C108.463 33.57 108.901 33.756 109.417 33.888C109.933 34.02 110.449 34.17 110.965 34.338C111.481 34.494 111.919 34.764 112.279 35.148C112.639 35.52 112.819 36.012 112.819 36.624C112.819 37.392 112.513 38.016 111.901 38.496C111.301 38.976 110.521 39.216 109.561 39.216C108.697 39.216 107.959 39.024 107.347 38.64C106.747 38.256 106.327 37.758 106.087 37.146L107.095 36.552C107.263 37.02 107.563 37.392 107.995 37.668C108.439 37.932 108.961 38.064 109.561 38.064C110.149 38.064 110.641 37.95 111.037 37.722C111.433 37.482 111.631 37.116 111.631 36.624C111.631 36.216 111.451 35.892 111.091 35.652C110.731 35.412 110.293 35.226 109.777 35.094C109.261 34.962 108.745 34.818 108.229 34.662C107.713 34.494 107.275 34.224 106.915 33.852C106.555 33.468 106.375 32.97 106.375 32.358C106.375 31.626 106.663 31.014 107.239 30.522C107.827 30.03 108.565 29.784 109.453 29.784C110.185 29.784 110.827 29.952 111.379 30.288C111.931 30.612 112.339 31.056 112.603 31.62L111.613 32.196C111.265 31.356 110.545 30.936 109.453 30.936C108.937 30.936 108.493 31.062 108.121 31.314C107.749 31.554 107.563 31.902 107.563 32.358ZM115.192 32.358C115.192 32.766 115.372 33.09 115.732 33.33C116.092 33.57 116.53 33.756 117.046 33.888C117.562 34.02 118.078 34.17 118.594 34.338C119.11 34.494 119.548 34.764 119.908 35.148C120.268 35.52 120.448 36.012 120.448 36.624C120.448 37.392 120.142 38.016 119.53 38.496C118.93 38.976 118.15 39.216 117.19 39.216C116.326 39.216 115.588 39.024 114.976 38.64C114.376 38.256 113.956 37.758 113.716 37.146L114.724 36.552C114.892 37.02 115.192 37.392 115.624 37.668C116.068 37.932 116.59 38.064 117.19 38.064C117.778 38.064 118.27 37.95 118.666 37.722C119.062 37.482 119.26 37.116 119.26 36.624C119.26 36.216 119.08 35.892 118.72 35.652C118.36 35.412 117.922 35.226 117.406 35.094C116.89 34.962 116.374 34.818 115.858 34.662C115.342 34.494 114.904 34.224 114.544 33.852C114.184 33.468 114.004 32.97 114.004 32.358C114.004 31.626 114.292 31.014 114.868 30.522C115.456 30.03 116.194 29.784 117.082 29.784C117.814 29.784 118.456 29.952 119.008 30.288C119.56 30.612 119.968 31.056 120.232 31.62L119.242 32.196C118.894 31.356 118.174 30.936 117.082 30.936C116.566 30.936 116.122 31.062 115.75 31.314C115.378 31.554 115.192 31.902 115.192 32.358ZM122.258 34.014V32.862H128.738V34.014H122.258ZM137.766 30H138.954V39H137.766V37.596C137.094 38.676 136.086 39.216 134.742 39.216C133.65 39.216 132.786 38.886 132.15 38.226C131.526 37.554 131.214 36.654 131.214 35.526V30H132.402V35.526C132.402 36.33 132.612 36.954 133.032 37.398C133.464 37.842 134.07 38.064 134.85 38.064C135.714 38.064 136.416 37.794 136.956 37.254C137.496 36.702 137.766 35.856 137.766 34.716V30ZM146.291 29.784C147.575 29.784 148.667 30.24 149.567 31.152C150.479 32.064 150.935 33.18 150.935 34.5C150.935 35.82 150.479 36.936 149.567 37.848C148.667 38.76 147.575 39.216 146.291 39.216C144.695 39.216 143.483 38.556 142.655 37.236V42.6H141.467V30H142.655V31.764C143.483 30.444 144.695 29.784 146.291 29.784ZM143.681 37.038C144.365 37.722 145.205 38.064 146.201 38.064C147.197 38.064 148.037 37.722 148.721 37.038C149.405 36.342 149.747 35.496 149.747 34.5C149.747 33.504 149.405 32.664 148.721 31.98C148.037 31.284 147.197 30.936 146.201 30.936C145.205 30.936 144.365 31.284 143.681 31.98C142.997 32.664 142.655 33.504 142.655 34.5C142.655 35.496 142.997 36.342 143.681 37.038ZM153.702 38.892C153.51 39.084 153.276 39.18 153 39.18C152.724 39.18 152.49 39.084 152.298 38.892C152.106 38.7 152.01 38.466 152.01 38.19C152.01 37.914 152.106 37.68 152.298 37.488C152.49 37.296 152.724 37.2 153 37.2C153.276 37.2 153.51 37.296 153.702 37.488C153.894 37.68 153.99 37.914 153.99 38.19C153.99 38.466 153.894 38.7 153.702 38.892ZM163.159 37.866C162.247 38.766 161.131 39.216 159.811 39.216C158.491 39.216 157.369 38.766 156.445 37.866C155.533 36.954 155.077 35.832 155.077 34.5C155.077 33.168 155.533 32.052 156.445 31.152C157.369 30.24 158.491 29.784 159.811 29.784C161.131 29.784 162.247 30.24 163.159 31.152C164.083 32.052 164.545 33.168 164.545 34.5C164.545 35.832 164.083 36.954 163.159 37.866ZM157.291 37.038C157.975 37.722 158.815 38.064 159.811 38.064C160.807 38.064 161.647 37.722 162.331 37.038C163.015 36.342 163.357 35.496 163.357 34.5C163.357 33.504 163.015 32.664 162.331 31.98C161.647 31.284 160.807 30.936 159.811 30.936C158.815 30.936 157.975 31.284 157.291 31.98C156.607 32.664 156.265 33.504 156.265 34.5C156.265 35.496 156.607 36.342 157.291 37.038ZM167.721 31.494C168.273 30.402 169.221 29.856 170.565 29.856V31.008C169.749 31.008 169.071 31.248 168.531 31.728C167.991 32.208 167.721 32.964 167.721 33.996V39H166.533V30H167.721V31.494ZM179.389 30H180.577V38.64C180.577 39.936 180.133 40.956 179.245 41.7C178.357 42.444 177.295 42.816 176.059 42.816C173.947 42.816 172.525 42.084 171.793 40.62L172.837 40.026C173.377 41.118 174.451 41.664 176.059 41.664C177.091 41.664 177.901 41.388 178.489 40.836C179.089 40.296 179.389 39.564 179.389 38.64V37.236C178.561 38.556 177.349 39.216 175.753 39.216C174.469 39.216 173.371 38.76 172.459 37.848C171.559 36.936 171.109 35.82 171.109 34.5C171.109 33.18 171.559 32.064 172.459 31.152C173.371 30.24 174.469 29.784 175.753 29.784C177.349 29.784 178.561 30.444 179.389 31.764V30ZM173.323 37.038C174.007 37.722 174.847 38.064 175.843 38.064C176.839 38.064 177.679 37.722 178.363 37.038C179.047 36.342 179.389 35.496 179.389 34.5C179.389 33.504 179.047 32.664 178.363 31.98C177.679 31.284 176.839 30.936 175.843 30.936C174.847 30.936 174.007 31.284 173.323 31.98C172.639 32.664 172.297 33.504 172.297 34.5C172.297 35.496 172.639 36.342 173.323 37.038Z" fill="#2E2F37"/>
<path d="M15.3673 9.11636C7.75799 11.6897 3.04867 16.3217 0 22.1055C1.48715 13.7974 6.44434 8.77325 14.3758 6.54304C14.5741 6.49402 14.7476 6.44501 14.9459 6.4205C17.8706 5.90584 18.7629 6.76361 17.1518 8.13605C16.6313 8.57719 16.0117 8.89579 15.3673 9.11636Z" fill="url(#paint0_linear)"/>
<path d="M2.87437 34.8255C0.37099 31.2474 -0.174301 27.3751 2.08122 23.0618C3.56837 20.4149 5.42732 18.1847 7.70762 16.4201C9.36828 15.1212 11.252 14.1654 13.2597 13.4547C19.8775 11.1019 22.6287 8.67567 20.4724 6.15137C22.9757 6.32292 24.909 7.05816 24.7108 9.72951C23.6202 14.1164 19.7784 16.8858 14.4246 18.8219C12.8879 19.3856 11.4007 20.0718 10.0127 20.9786C4.70853 24.3852 2.18036 28.9436 2.87437 34.8255Z" fill="url(#paint1_linear)"/>
<path d="M20.4231 26.8118C12.8138 30.1939 7.98053 32.7427 9.19504 40.2911C3.34556 35.9042 5.35322 27.0569 12.5659 23.2826C24.711 17.7194 29.5195 12.4502 26.7682 8.1123C32.3203 12.7688 32.3451 17.5968 26.8426 22.6209C24.9589 24.3855 22.7777 25.7824 20.4231 26.8118Z" fill="url(#paint2_linear)"/>
<path d="M27.4879 32.7422C18.8376 39.2613 14.277 38.0849 15.7641 42.2512C6.86599 40.2906 12.6163 34.2617 21.1922 29.8748C23.4725 28.6984 25.6785 27.522 27.7109 25.978C33.9322 21.2971 33.5604 15.3171 31.9741 12.5723C38.2202 18.7237 35.0476 26.7868 27.4879 32.7422Z" fill="url(#paint3_linear)"/>
<path d="M21.315 39.1386C28.9243 36.5652 33.6336 31.9333 36.6823 26.1494C35.1951 34.4331 30.2379 39.4817 22.3064 41.7119C22.1081 41.7609 21.9346 41.8099 21.7364 41.8344C18.8116 42.3491 17.9193 41.4913 19.5304 40.1189C20.0509 39.7022 20.6706 39.3591 21.315 39.1386Z" fill="url(#paint4_linear)"/>
<defs>
<linearGradient id="paint0_linear" x1="-0.595271" y1="21.514" x2="15.9468" y2="4.78422" gradientUnits="userSpaceOnUse">
<stop stop-color="#CE2000"/>
<stop offset="0.6128" stop-color="#A61A00"/>
<stop offset="1" stop-color="#DD1500"/>
</linearGradient>
<linearGradient id="paint1_linear" x1="-0.615314" y1="31.3539" x2="23.5515" y2="6.91293" gradientUnits="userSpaceOnUse">
<stop stop-color="#CE2000"/>
<stop offset="0.6128" stop-color="#A61A00"/>
<stop offset="1" stop-color="#DD1500"/>
</linearGradient>
<linearGradient id="paint2_linear" x1="5.40768" y1="36.6745" x2="30.2945" y2="11.5054" gradientUnits="userSpaceOnUse">
<stop stop-color="#CE2000"/>
<stop offset="0.6128" stop-color="#A61A00"/>
<stop offset="1" stop-color="#DD1500"/>
</linearGradient>
<linearGradient id="paint3_linear" x1="11.8892" y1="40.4284" x2="35.7643" y2="16.2823" gradientUnits="userSpaceOnUse">
<stop stop-color="#CE2000"/>
<stop offset="0.6128" stop-color="#A61A00"/>
<stop offset="1" stop-color="#DD1500"/>
</linearGradient>
<linearGradient id="paint4_linear" x1="20.5412" y1="43.2928" x2="37.0834" y2="26.563" gradientUnits="userSpaceOnUse">
<stop stop-color="#CE2000"/>
<stop offset="0.6128" stop-color="#A61A00"/>
<stop offset="1" stop-color="#DD1500"/>
</linearGradient>
</defs>
</svg>
