<svg width="26" height="27" viewBox="0 0 26 27" fill="none" xmlns="http://www.w3.org/2000/svg">
<path d="M22.4901 11.7815C22.5222 8.11573 19.3161 4.75525 15.3432 4.29055C15.2642 4.28141 15.1781 4.26754 15.087 4.25282C14.8903 4.22108 14.6869 4.18848 14.4817 4.18848C13.6675 4.18848 13.4498 4.74545 13.3925 5.07767C13.3368 5.40064 13.39 5.67186 13.5502 5.88418C13.8199 6.24123 14.2943 6.3046 14.6754 6.35544C14.7871 6.37047 14.8925 6.38443 14.9807 6.40373C18.5502 7.18044 19.7521 8.40153 20.3395 11.8479C20.3538 11.9321 20.3603 12.0359 20.3672 12.146C20.3928 12.558 20.4462 13.4151 21.3925 13.4151H21.3926C21.4714 13.4151 21.556 13.4085 21.6441 13.3954C22.5253 13.265 22.4977 12.4815 22.4845 12.105C22.4807 11.999 22.4772 11.8987 22.4864 11.832C22.4888 11.8152 22.49 11.7983 22.4901 11.7815Z" fill="#7F40BD"/>
<path d="M14.2497 2.94532C14.3554 2.95274 14.4556 2.95985 14.5389 2.97229C20.4003 3.8501 23.0959 6.55443 23.8429 12.3069C23.8556 12.4047 23.8576 12.524 23.8597 12.6503C23.8671 13.0997 23.8824 14.0347 24.9136 14.054L24.9456 14.0543C25.2689 14.0543 25.5262 13.9594 25.7102 13.7719C26.0311 13.445 26.0088 12.9593 25.9907 12.5689C25.9863 12.4731 25.9821 12.383 25.9831 12.304C26.0576 6.42068 20.828 1.0857 14.7918 0.887344C14.7668 0.886531 14.7429 0.887852 14.7187 0.891153C14.7069 0.892828 14.6849 0.894961 14.6473 0.894961C14.5871 0.894961 14.513 0.889883 14.4345 0.884703C14.3395 0.878356 14.2319 0.871094 14.1228 0.871094C13.1615 0.871094 12.9788 1.53644 12.9554 1.93304C12.9015 2.8497 13.8121 2.9142 14.2497 2.94532Z" fill="#7F40BD"/>
<path d="M23.5605 19.7417C23.4359 19.649 23.3071 19.5531 23.1864 19.4584C22.5465 18.9569 21.8656 18.4946 21.2072 18.0476C21.0705 17.9549 20.9339 17.8621 20.7977 17.7691C19.9543 17.1921 19.196 16.9118 18.4796 16.9118C17.5146 16.9118 16.6734 17.431 15.979 18.4547C15.6714 18.9086 15.2982 19.1293 14.8382 19.1293C14.5663 19.1293 14.2572 19.0537 13.9198 18.9046C11.1973 17.7024 9.2533 15.8591 8.14166 13.4259C7.60428 12.2499 7.7785 11.4812 8.72426 10.8556C9.26133 10.5006 10.261 9.83981 10.1902 8.57438C10.11 7.13735 6.85397 2.81344 5.48206 2.32238C4.90124 2.11438 4.29095 2.11245 3.66492 2.31755C2.08776 2.83385 0.95599 3.74056 0.391645 4.93947C-0.153718 6.09795 -0.129104 7.45819 0.462879 8.87318C2.17417 12.9643 4.58011 16.5312 7.61418 19.4746C10.584 22.3559 14.2341 24.7161 18.4631 26.4894C18.8443 26.6491 19.2442 26.7363 19.5361 26.7998C19.6356 26.8216 19.7215 26.8402 19.7841 26.8569C19.8185 26.866 19.854 26.871 19.8896 26.8713L19.923 26.8714C19.9231 26.8714 19.923 26.8714 19.9232 26.8714C21.9122 26.8714 24.3005 25.1015 25.034 23.0836C25.6767 21.3167 24.5033 20.4434 23.5605 19.7417Z" fill="#7F40BD"/>
<path d="M15.1278 7.61985C14.7873 7.62823 14.0786 7.64534 13.8299 8.34826C13.7136 8.67672 13.7275 8.96191 13.8714 9.19591C14.0825 9.53924 14.487 9.64446 14.8549 9.7022C16.1891 9.91071 16.8744 10.6292 17.0114 11.9631C17.0751 12.5851 17.5052 13.0194 18.0574 13.0194H18.0575C18.0983 13.0194 18.14 13.0171 18.1816 13.0122C18.8458 12.9352 19.1678 12.46 19.1387 11.5999C19.1493 10.7022 18.6669 9.68316 17.8464 8.87141C17.023 8.05718 16.0306 7.59862 15.1278 7.61985Z" fill="#7F40BD"/>
</svg>
