<svg width="26" height="27" viewBox="0 0 26 27" fill="none" xmlns="http://www.w3.org/2000/svg">
<g clip-path="url(#clip0)">
<path d="M13.0033 0.871094H12.9967C5.82888 0.871094 0 6.70159 0 13.8711C0 16.7148 0.9165 19.3506 2.47487 21.4907L0.85475 26.3202L5.85162 24.7228C7.90725 26.0846 10.3594 26.8711 13.0033 26.8711C20.1711 26.8711 26 21.039 26 13.8711C26 6.70322 20.1711 0.871094 13.0033 0.871094Z" fill="#4CAF50"/>
<path d="M20.5679 19.2291C20.2543 20.1147 19.0095 20.8492 18.0166 21.0637C17.3374 21.2084 16.4501 21.3237 13.4634 20.0855C9.64301 18.5027 7.18277 14.6206 6.99102 14.3687C6.80739 14.1169 5.44727 12.3131 5.44727 10.4476C5.44727 8.58213 6.39464 7.67376 6.77652 7.28376C7.09014 6.96363 7.60852 6.81738 8.10577 6.81738C8.26664 6.81738 8.41127 6.82551 8.54127 6.83201C8.92314 6.84826 9.11489 6.87101 9.36677 7.47388C9.68039 8.22951 10.4441 10.095 10.5351 10.2868C10.6278 10.4785 10.7204 10.7385 10.5904 10.9904C10.4685 11.2504 10.3613 11.3658 10.1695 11.5868C9.97777 11.8078 9.79577 11.9768 9.60402 12.214C9.42852 12.4204 9.23027 12.6414 9.45127 13.0233C9.67227 13.397 10.436 14.6434 11.5605 15.6444C13.0116 16.9362 14.1881 17.349 14.609 17.5245C14.9226 17.6545 15.2964 17.6236 15.5255 17.3799C15.8164 17.0662 16.1755 16.5462 16.5411 16.0344C16.8011 15.6671 17.1294 15.6216 17.4739 15.7516C17.8249 15.8735 19.6823 16.7916 20.0641 16.9817C20.446 17.1735 20.6979 17.2645 20.7905 17.4254C20.8815 17.5862 20.8815 18.3419 20.5679 19.2291Z" fill="#FAFAFA"/>
</g>
<defs>
<clipPath id="clip0">
<rect width="26" height="26" fill="white" transform="translate(0 0.871094)"/>
</clipPath>
</defs>
</svg>
