<svg width="40" height="40" viewBox="0 0 40 40" fill="none" xmlns="http://www.w3.org/2000/svg">
<circle cx="20" cy="20" r="20" fill="white"/>
<path d="M27.9268 12.0625C25.9512 10.0937 23.3171 9 20.5366 9C14.7561 9 10.0732 13.6666 10.0732 19.427C10.0732 21.2499 10.5854 23.0728 11.4634 24.6041L10 29.9999L15.561 28.5416C17.0976 29.3436 18.7805 29.7811 20.5366 29.7811C26.3171 29.7811 31 25.1145 31 19.3541C30.9268 16.6562 29.9024 14.0312 27.9268 12.0625ZM25.5854 23.1458C25.3659 23.7291 24.3415 24.3124 23.8293 24.3853C23.3902 24.4582 22.8049 24.4582 22.2195 24.3124C21.8537 24.1666 21.3415 24.0207 20.7561 23.7291C18.122 22.6353 16.439 20.0104 16.2927 19.7916C16.1463 19.6458 15.1951 18.4062 15.1951 17.0937C15.1951 15.7812 15.8537 15.1979 16.0732 14.9062C16.2927 14.6146 16.5854 14.6146 16.8049 14.6146C16.9512 14.6146 17.1707 14.6146 17.3171 14.6146C17.4634 14.6146 17.6829 14.5416 17.9024 15.052C18.122 15.5625 18.6341 16.875 18.7073 16.9479C18.7805 17.0937 18.7805 17.2395 18.7073 17.3854C18.6341 17.5312 18.561 17.677 18.4146 17.8229C18.2683 17.9687 18.1219 18.1874 18.0488 18.2604C17.9024 18.4062 17.7561 18.552 17.9024 18.7708C18.0488 19.0624 18.561 19.8645 19.3659 20.5937C20.3902 21.4687 21.1951 21.7603 21.4878 21.9062C21.7805 22.052 21.9268 21.9791 22.0732 21.8333C22.2195 21.6874 22.7317 21.1041 22.878 20.8124C23.0244 20.5208 23.2439 20.5937 23.4634 20.6666C23.6829 20.7395 25 21.3958 25.2195 21.5416C25.5122 21.6874 25.6585 21.7603 25.7317 21.8333C25.8049 22.052 25.8049 22.5624 25.5854 23.1458Z" fill="#4DC14D"/>
</svg>
