<svg width="64" height="64" viewBox="0 0 64 64" fill="none" xmlns="http://www.w3.org/2000/svg">
<path d="M0.0117188 0L63.6367 63.625V0H0.0117188Z" fill="url(#paint0_linear_595_1741)"/>
<path d="M0.0117188 0L63.6367 63.625V0H0.0117188Z" fill="#FBBA00"/>
<path d="M42.981 11.1204C43.0785 10.8614 43.4449 10.8614 43.5425 11.1204L45.4245 16.1175C45.4668 16.2297 45.5717 16.3059 45.6914 16.3114L51.0255 16.5572C51.302 16.5699 51.4152 16.9184 51.199 17.0912L47.0281 20.4253C46.9345 20.5002 46.8944 20.6235 46.9262 20.7391L48.3408 25.8881C48.4141 26.155 48.1177 26.3703 47.8865 26.2181L43.4267 23.2816C43.3266 23.2157 43.1968 23.2157 43.0967 23.2816L38.6369 26.2181C38.4058 26.3703 38.1093 26.155 38.1827 25.8881L39.5973 20.7391C39.629 20.6235 39.5889 20.5002 39.4953 20.4253L35.3244 17.0912C35.1082 16.9184 35.2214 16.5699 35.4979 16.5572L40.832 16.3114C40.9517 16.3059 41.0567 16.2297 41.0989 16.1175L42.981 11.1204Z" fill="white"/>
<defs>
<linearGradient id="paint0_linear_595_1741" x1="120.475" y1="63.6252" x2="1.92047" y2="63.6252" gradientUnits="userSpaceOnUse">
<stop stop-color="#FFE24D"/>
<stop offset="1" stop-color="#FF5631"/>
</linearGradient>
</defs>
</svg>
