<svg width="156" height="164" viewBox="0 0 156 164" fill="none" xmlns="http://www.w3.org/2000/svg">
<ellipse rx="61.7466" ry="53.1199" transform="matrix(-0.80447 0.593993 0.52795 0.849276 77.718 81.7935)" fill="white"/>
<g clip-path="url(#clip0)">
<path d="M58.6904 78.4299C58.6884 77.6367 59.332 76.9934 60.1275 76.9934C60.24 76.9934 60.3486 77.0033 60.4493 77.0309C61.9239 77.3664 63.2426 78.1103 64.275 79.1403C65.7022 80.5669 66.5846 82.5381 66.5846 84.7146L66.5827 86.6897L79.8641 73.4141C81.4 71.8789 83.9129 71.8789 85.4468 73.4141C86.9826 74.9492 86.9826 77.4611 85.4468 78.9943L79.3055 85.1329C80.4406 85.0165 81.6151 85.3776 82.4857 86.2458C83.0897 86.8496 83.449 87.6053 83.5773 88.3887L86.1101 97.8758C86.4575 99.188 86.1219 100.642 85.0954 101.67L80.5037 106.26C75.5113 111.25 67.4216 111.25 62.4292 106.26C60.011 103.843 58.7753 100.699 58.7022 97.5345L58.6884 97.5463V97.2365C58.6884 97.2306 58.6884 97.2247 58.6884 97.2227L58.6904 78.4299ZM60.6783 97.4871C60.7454 100.281 61.8647 102.902 63.8289 104.863C68.0435 109.076 74.8974 109.076 79.11 104.863L83.7017 100.273C84.1932 99.7819 84.3768 99.0755 84.1952 98.3829L81.6329 88.7103C81.5855 88.4222 81.4533 88.0019 81.094 87.6408C80.5353 87.0824 79.8622 87.0587 79.5088 87.0943L76.751 87.3725C76.3365 87.4139 75.9397 87.1909 75.7601 86.8141C75.5804 86.4372 75.6594 85.9893 75.9535 85.6933L84.0531 77.5972C84.823 76.8277 84.823 75.5747 84.0531 74.8071C83.2832 74.0376 82.0297 74.0376 81.2618 74.8071L67.3071 88.7557C66.713 89.3496 65.8424 89.4739 65.1199 89.1503C64.81 89.0102 64.6106 88.7024 64.6106 88.363V84.7165C64.6106 83.138 63.9947 81.6541 62.8793 80.5373C62.2496 79.9079 61.4955 79.4323 60.6664 79.1383L60.6783 97.4871Z" fill="#363636"/>
<path d="M77.6133 63.9695H62.4668L66.0399 60.398L64.6442 59.0029L58.6885 64.9561L64.6363 70.9033L66.032 69.5082L62.4668 65.9427H77.6133V63.9695Z" fill="#56AB00"/>
<path d="M87.6133 63.9695H102.76L99.1867 60.398L100.582 59.0029L106.538 64.9561L100.59 70.9033L99.1946 69.5082L102.76 65.9427H87.6133V63.9695Z" fill="#56AB00"/>
</g>
<defs>
<clipPath id="clip0">
<rect width="48.0001" height="51" fill="white" transform="matrix(-1 0 0 1 106.688 59.0029)"/>
</clipPath>
</defs>
</svg>
